<svg data-v-0dd9719b="" version="1.0" xmlns="http://www.w3.org/2000/svg" xmlns:xlink="http://www.w3.org/1999/xlink" width="100%" height="100%" viewBox="0 0 340.000000 250.000000" preserveAspectRatio="xMidYMid meet" color-interpolation-filters="sRGB" style="margin: auto;"> <rect data-v-0dd9719b="" x="0" y="0" width="100%" height="100%" fill="#ffffff" fill-opacity="1" class="background"></rect> <rect data-v-0dd9719b="" x="0" y="0" width="100%" height="100%" fill="url(#watermark)" fill-opacity="1" class="watermarklayer"></rect> <g data-v-0dd9719b="" fill="#fbbd53" class="icon-text-wrapper icon-svg-group iconsvg" transform="translate(48.215003967285156,95)"><g class="iconsvg-imagesvg" transform="translate(0,0)"><g><rect fill="#fbbd53" fill-opacity="0" stroke-width="2" x="0" y="0" width="60" height="60" class="image-rect"></rect> <svg filter="url(#colors369365927)" x="0" y="0" width="60" height="60" filtersec="colorsf4418033052" class="image-svg-svg primary" style="overflow: visible;"><svg fill="#000000" xmlns:dc="http://purl.org/dc/elements/1.1/" xmlns:cc="http://creativecommons.org/ns#" xmlns:rdf="http://www.w3.org/1999/02/22-rdf-syntax-ns#" xmlns:svg="http://www.w3.org/2000/svg" xmlns="http://www.w3.org/2000/svg" xmlns:sodipodi="http://sodipodi.sourceforge.net/DTD/sodipodi-0.dtd" xmlns:inkscape="http://www.inkscape.org/namespaces/inkscape" viewBox="0.7011699999999998 0.7002000000000002 46.59766 46.59766" version="1.1" x="0px" y="0px"><g transform="translate(0,-1004.3622)"><path style="color:#000000;font-style:normal;font-variant:normal;font-weight:normal;font-stretch:normal;font-size:medium;line-height:normal;font-family:sans-serif;text-indent:0;text-align:start;text-decoration:none;text-decoration-line:none;text-decoration-style:solid;text-decoration-color:#000000;letter-spacing:normal;word-spacing:normal;text-transform:none;direction:ltr;block-progression:tb;writing-mode:lr-tb;baseline-shift:baseline;text-anchor:start;white-space:normal;clip-rule:nonzero;display:inline;overflow:visible;visibility:visible;opacity:1;isolation:auto;mix-blend-mode:normal;color-interpolation:sRGB;color-interpolation-filters:linearRGB;solid-color:#000000;solid-opacity:1;fill:#000000;fill-opacity:1;fill-rule:nonzero;stroke:none;stroke-width:1.20000005;stroke-linecap:round;stroke-linejoin:miter;stroke-miterlimit:4;stroke-dasharray:none;stroke-dashoffset:0;stroke-opacity:1;color-rendering:auto;image-rendering:auto;shape-rendering:auto;text-rendering:auto;enable-background:accumulate" d="m 15.832031,1007.0624 2.802735,6.7949 10.724609,0 2.8125,-6.7949 -16.339844,0 z m -1.109375,0.457 -11.5605465,11.5586 0.00195,0 6.7890625,2.8164 7.576172,-7.5781 -2.806641,-6.7989 z m 18.558594,0 -2.8125,6.7969 7.572266,7.5742 6.794922,-2.8164 -11.554688,-11.5547 z m -14.794922,7.5351 -7.794922,7.795 0,11.0214 7.794922,7.795 11.023438,0 7.794922,-7.795 0,-11.0214 -7.794922,-7.795 -11.023438,0 z m -15.785156,5.1289 0,16.3536 6.7910156,-2.8125 0,-10.7247 -6.7910156,-2.8164 z m 42.597656,0 -6.794922,2.8145 0,10.7266 6.794922,2.8144 0,-16.3555 z m -35.3417967,14.6485 -6.7949218,2.8144 11.5527345,11.5508 2.822265,-6.7832 -7.5800777,-7.582 z m 28.0839847,0 -7.572266,7.5703 2.804688,6.8066 11.5625,-11.5644 -6.794922,-2.8125 z m -19.394532,8.0351 -2.828125,6.793 16.345703,0 -2.798828,-6.793 -10.71875,0 z"></path></g></svg></svg> <defs><filter id="colors369365927"><feColorMatrix type="matrix" values="0 0 0 0 0.8515625  0 0 0 0 0.39453125  0 0 0 0 0.26953125  0 0 0 1 0" class="icon-fecolormatrix"></feColorMatrix></filter> <filter id="colorsf4418033052"><feColorMatrix type="matrix" values="0 0 0 0 0.99609375  0 0 0 0 0.99609375  0 0 0 0 0.99609375  0 0 0 1 0" class="icon-fecolormatrix"></feColorMatrix></filter> <filter id="colorsb5765395071"><feColorMatrix type="matrix" values="0 0 0 0 0  0 0 0 0 0  0 0 0 0 0  0 0 0 1 0" class="icon-fecolormatrix"></feColorMatrix></filter></defs></g></g> <g transform="translate(67,1.8887500762939453)"><g data-gra="path-name" fill-rule="" class="tp-name iconsvg-namesvg" transform="translate(0,0)"><g transform="scale(1)"><g><path d="M13.45-32.34L13.45-32.34 11.47-29.75Q9.18-32.08 4.48-34.63L4.48-34.63Q4.22-34.76 4.04-34.85L4.04-34.85 5.93-37.22Q11.25-34.63 13.45-32.34ZM11.34-20.74L11.34-20.74 9.4-18.06Q7.12-20.3 2.15-22.68L2.15-22.68Q1.98-22.76 1.85-22.81L1.85-22.81 3.74-25.22Q9.05-22.81 11.34-20.74ZM5.93 2.86L5.93 2.86 2.99 0.88Q6.68-5.45 9.93-13.49L9.93-13.49 12.57-11.65Q9.45-3.87 5.93 2.86ZM42.8-32.08L42.8-29 20.35-29Q18.11-23.99 15.29-20.65L15.29-20.65Q14.11-21.88 12.61-22.76L12.61-22.76Q17.23-27.82 19.78-36.96L19.78-36.96Q19.91-37.35 20-37.71L20-37.71 23.25-36.96Q22.46-34.23 21.62-32.08L21.62-32.08 42.8-32.08ZM31.99-7.82L31.99-7.82 30.06-5.93Q28.08-8.31 24.08-10.85L24.08-10.85Q23.99-10.94 23.91-10.99L23.91-10.99 25.8-12.61Q29.66-10.28 31.99-7.82ZM19.51-5.84L19.51-5.84 35.64-5.84Q35.86-8.22 36.08-12.79L36.08-12.79 20.39-12.79Q20.21-11.29 19.86-8.44L19.86-8.44Q19.6-6.68 19.51-5.84ZM36.43-22.19L36.43-22.19 21.36-22.19Q21.23-20.87 20.96-18.06L20.96-18.06Q20.79-16.48 20.7-15.69L20.7-15.69 30.5-15.69Q28.7-17.84 24.96-20.08L24.96-20.08Q24.79-20.17 24.65-20.26L24.65-20.26 26.46-21.97Q30.32-19.78 32.39-17.53L32.39-17.53 30.59-15.69 36.21-15.69Q36.25-16.79 36.34-19.25L36.34-19.25Q36.39-21.18 36.43-22.19ZM43.24-15.69L43.24-12.79 39.16-12.79Q38.94-8.22 38.72-5.84L38.72-5.84 42.8-5.84 42.8-2.99 38.41-2.99Q37.88 0.7 37.05 1.76L37.05 1.76Q36.17 3.12 34.15 3.34L34.15 3.34Q34.06 3.34 34.01 3.34L34.01 3.34Q31.64 3.52 28.34 3.3L28.34 3.3Q28.13 1.41 27.51 0.48L27.51 0.48Q29.79 0.66 32.7 0.66L32.7 0.66Q33.84 0.7 34.32 0.04L34.32 0.04Q34.94-0.75 35.29-2.99L35.29-2.99 19.12-2.99 18.81-0.7 15.6-1.05Q16.66-7.29 17.31-12.79L17.31-12.79 12.74-12.79 12.74-15.69 17.67-15.69Q18.37-22.32 18.59-24.92L18.59-24.92 39.59-24.92Q39.59-24.87 39.55-23.38L39.55-23.38Q39.42-19.42 39.29-15.69L39.29-15.69 43.24-15.69ZM79.01-8.13L79.01-5.36 68.99-5.36 68.99 2.55 65.79 2.55 65.79-5.36 56.12-5.36 56.12-8.13 65.79-8.13 65.79-12.7 57.04-12.7 57.04-15.42 61.79-15.42Q61.04-18.15 59.33-20.74L59.33-20.74 61.96-21.4Q63.9-18.59 64.56-16.22L64.56-16.22 62.14-15.42 70.18-15.42Q71.76-18.54 72.77-21.62L72.77-21.62 75.76-20.92Q74.58-18.24 73.17-15.42L73.17-15.42 78.27-15.42 78.27-12.7 68.99-12.7 68.99-8.13 79.01-8.13ZM87.23-33.18L87.23-30.01 68.86-30.01Q68.73-28.96 68.38-26.89L68.38-26.89Q68.2-25.75 68.12-25.22L68.12-25.22 84.81-25.22 84.81-0.44Q84.81 1.98 83.45 2.72L83.45 2.72Q83.14 2.86 82.88 2.94L82.88 2.94Q81.3 3.47 75.28 3.47L75.28 3.47Q74.88 1.98 74.09 0.44L74.09 0.44Q78.44 0.66 80.42 0.53L80.42 0.53Q81.34 0.13 81.43-0.44L81.43-0.44 81.43-22.15 53.61-22.15 53.61 3.43 50.32 3.43 50.32-25.22 64.95-25.22Q65.17-26.76 65.52-30.01L65.52-30.01 47.9-30.01 47.9-33.18 65.83-33.18Q66.09-36.52 66.14-37.71L66.14-37.71 69.74-37.31Q69.61-35.95 69.26-33.18L69.26-33.18 87.23-33.18ZM118.04-3.21L118.04-7.78 106.96-7.78 106.96-3.21 118.04-3.21ZM121.03-10.2L121.03-0.7 106.96-0.7 106.96 1.54 103.97 1.54 103.97-10.2 121.03-10.2ZM95.1-15.91L130.17-15.91 130.17-0.53Q130.17 1.85 128.8 2.64L128.8 2.64Q128.58 2.77 128.36 2.86L128.36 2.86Q126.83 3.34 120.81 3.34L120.81 3.34Q120.45 1.54 119.75 0.22L119.75 0.22Q124.58 0.35 125.95 0.22L125.95 0.22Q126.78 0 126.87-0.62L126.87-0.62 126.87-13.1 98.26-13.1 98.26 3.43 95.1 3.43 95.1-15.91ZM103.67-21.18L121.25-21.18 121.25-25.58 103.67-25.58 103.67-21.18ZM100.5-18.76L100.5-27.95 124.54-27.95 124.54-18.76 100.5-18.76ZM113.95-37.66L113.95-33.4 131.88-33.4 131.88-30.45 93.12-30.45 93.12-33.4 110.57-33.4 110.57-37.66 113.95-37.66ZM171.78-26.19L163.92-26.15Q165.23-18.06 167.87-11.95L167.87-11.95Q170.55-17.58 171.78-26.19L171.78-26.19ZM147.83-30.1L147.83-25.66 150.47-25.66Q152.27-27.99 153.46-30.1L153.46-30.1 147.83-30.1ZM178.07-29.36L178.07-26.19 175.21-26.19Q173.36-14.72 169.72-8.22L169.72-8.22Q173.23-2.11 178.42 0.62L178.42 0.62Q177.1 1.63 176.18 3.3L176.18 3.3Q176.13 3.43 176.09 3.47L176.09 3.47Q171.08 0.53 167.65-5.14L167.65-5.14Q163.7 0.18 157.19 3.56L157.19 3.56Q156.27 1.67 155.21 0.57L155.21 0.57Q161.98-2.68 165.85-8.48L165.85-8.48Q163.39-13.71 161.81-20.92L161.81-20.92Q160.49-17.93 158.77-15.64L158.77-15.64Q157.85-16.66 156.36-17.71L156.36-17.71Q153.5-14.28 149.68-11.51L149.68-11.51 149.68-9.67Q151.13-9.8 153.98-10.11L153.98-10.11Q157.24-10.46 158.86-10.63L158.86-10.63 158.86-7.73 149.68-6.72 149.68-0.13Q149.68 2.11 148.49 2.77L148.49 2.77Q148.27 2.86 148.1 2.94L148.1 2.94Q146.65 3.43 142.08 3.43L142.08 3.43Q141.81 1.89 140.98 0.48L140.98 0.48Q143.22 0.53 145.77 0.53L145.77 0.53Q146.47 0.31 146.51-0.13L146.51-0.13 146.51-6.37Q143.92-6.06 137.2-5.41L137.2-5.41 136.8-8.39Q138.3-8.53 141.9-8.88L141.9-8.88Q144.93-9.23 146.51-9.36L146.51-9.36 146.51-13.36 148.01-13.36Q149.9-14.77 151.7-16.7L151.7-16.7 146.51-16.7Q142.78-13.36 138.52-10.94L138.52-10.94Q137.81-11.87 136.14-13.45L136.14-13.45Q139-14.94 141.37-16.7L141.37-16.7 140.67-16.7 140.67-19.34 144.67-19.34Q146.12-20.57 148.05-22.68L148.05-22.68 137.02-22.68 137.02-25.66 144.76-25.66 144.76-30.1 138.82-30.1 138.82-32.96 144.76-32.96 144.76-37.66 147.83-37.66 147.83-32.96 153.46-32.96 153.46-30.15Q155.13-33 156.53-36.65L156.53-36.65 159.7-35.73Q157.5-30.37 154.34-25.66L154.34-25.66 158.69-25.66 158.69-22.68 152.14-22.68Q150.42-20.61 149.28-19.34L149.28-19.34 154.16-19.34 154.78-19.51 156.36-18.37Q161.15-24.92 163.34-37.66L163.34-37.66 166.73-37.13Q165.98-33 164.93-29.36L164.93-29.36 178.07-29.36Z" transform="translate(-1.850000023841858, 37.709999084472656)"></path></g> <!----> <!----> <!----> <!----> <!----> <!----> <!----></g></g> <g data-gra="path-slogan" fill-rule="" class="tp-slogan iconsvg-slogansvg" fill="#fbbd53" transform="translate(4.844993591308594,47.27000045776367)"><rect width="0"></rect> <rect x="169.8800048828125" width="0"></rect> <g transform="translate(0,0)"><g transform="scale(1)"><path d="M2.06-5.06L6.56-5.06L6.56-8.58L7.73-8.58L7.73 0L6.56 0L6.56-3.98L2.06-3.98L2.06 0L0.89 0L0.89-8.58L2.06-8.58L2.06-5.06ZM15.19 0L14.34-2.48L10.88-2.48L9.98 0L8.81 0L12.05-8.58L13.36-8.58L16.45 0L15.19 0ZM12.61-7.31L11.25-3.52L13.92-3.52L12.66-7.31L12.61-7.31ZM17.67-8.58L18.84-8.58L18.84 0L17.67 0L17.67-8.58ZM22.22-8.58L26.53-1.64L26.53-8.58L27.66-8.58L27.66 0L26.34 0L21.98-6.94L21.94-6.94L21.94 0L20.81 0L20.81-8.58L22.22-8.58ZM35.11 0L34.27-2.48L30.80-2.48L29.91 0L28.73 0L31.97-8.58L33.28-8.58L36.38 0L35.11 0ZM32.53-7.31L31.17-3.52L33.84-3.52L32.58-7.31L32.53-7.31ZM38.81-8.58L43.13-1.64L43.13-8.58L44.25-8.58L44.25 0L42.94 0L38.58-6.94L38.53-6.94L38.53 0L37.41 0L37.41-8.58L38.81-8.58ZM50.53-5.06L55.03-5.06L55.03-8.58L56.20-8.58L56.20 0L55.03 0L55.03-3.98L50.53-3.98L50.53 0L49.36 0L49.36-8.58L50.53-8.58L50.53-5.06ZM58.17-8.58L59.34-8.58L59.34 0L58.17 0L58.17-8.58ZM67.73-3.61L65.11-3.61L65.11-4.59L68.86-4.59L68.86 0L68.11 0L67.83-1.08Q66.84 0.09 65.02 0.14L65.02 0.14Q63.28 0.14 62.34-0.75L62.34-0.75Q60.94-2.06 60.98-4.36L60.98-4.36Q61.31-8.63 65.06-8.81L65.06-8.81Q68.25-8.63 68.72-6L68.72-6L67.59-6Q67.13-7.78 65.02-7.83L65.02-7.83Q62.34-7.64 62.20-4.31L62.20-4.31Q62.20-0.75 65.06-0.75L65.06-0.75Q66.09-0.75 66.84-1.31L66.84-1.31Q67.78-2.06 67.73-3.61L67.73-3.61ZM71.81-5.06L76.31-5.06L76.31-8.58L77.48-8.58L77.48 0L76.31 0L76.31-3.98L71.81-3.98L71.81 0L70.64 0L70.64-8.58L71.81-8.58L71.81-5.06ZM80.58-1.03L85.73-1.03L85.73 0L79.41 0L79.41-8.58L85.64-8.58L85.64-7.59L80.58-7.59L80.58-4.92L85.27-4.92L85.27-3.89L80.58-3.89L80.58-1.03ZM91.36-3.70L88.55-3.70L88.55 0L87.38 0L87.38-8.58L91.36-8.58Q94.22-8.58 94.22-6.28L94.22-6.28Q94.22-4.88 93-4.22L93-4.22Q94.03-3.94 94.03-2.58L94.03-2.58L94.13-1.03Q94.08-0.38 94.55-0.19L94.55-0.19L94.55 0L93.09 0Q92.95-0.61 92.91-2.16L92.91-2.16Q92.95-3.70 91.36-3.70L91.36-3.70ZM91.45-7.64L88.55-7.64L88.55-4.69L91.27-4.69Q93-4.69 93-6.19L93-6.19Q93-7.64 91.45-7.64L91.45-7.64ZM100.50-1.03L105.66-1.03L105.66 0L99.33 0L99.33-8.58L105.56-8.58L105.56-7.59L100.50-7.59L100.50-4.92L105.19-4.92L105.19-3.89L100.50-3.89L100.50-1.03ZM110.67 0L107.20 0L107.20-8.58L110.72-8.58Q114.19-8.39 114.33-4.41L114.33-4.41Q114.14-0.09 110.67 0L110.67 0ZM110.53-7.64L108.38-7.64L108.38-0.98L110.63-0.98Q113.06-1.13 113.16-4.31L113.16-4.31Q113.11-7.55 110.53-7.64L110.53-7.64ZM121.45-3.19L121.45-8.58L122.63-8.58L122.63-3.05Q122.48 0.05 119.11 0.14L119.11 0.14Q115.97 0.05 115.83-2.86L115.83-2.86L115.83-8.58L117-8.58L117-3.19Q117.05-0.84 119.16-0.80L119.16-0.80Q121.45-0.84 121.45-3.19L121.45-3.19ZM131.58-6.05L131.58-6.05L130.45-6.05Q130.03-7.78 128.06-7.83L128.06-7.83Q125.34-7.69 125.25-4.36L125.25-4.36Q125.25-0.80 128.11-0.80L128.11-0.80Q130.08-0.84 130.55-3.19L130.55-3.19L131.67-3.19Q131.16 0.05 127.88 0.14L127.88 0.14Q124.13 0 124.03-4.31L124.03-4.31Q124.22-8.63 128.06-8.81L128.06-8.81Q131.11-8.72 131.58-6.05ZM138.70 0L137.86-2.48L134.39-2.48L133.50 0L132.33 0L135.56-8.58L136.88-8.58L139.97 0L138.70 0ZM136.13-7.31L134.77-3.52L137.44-3.52L136.17-7.31L136.13-7.31ZM143.20-7.59L140.30-7.59L140.30-8.58L147.23-8.58L147.23-7.59L144.33-7.59L144.33 0L143.20 0L143.20-7.59ZM148.45-8.58L149.63-8.58L149.63 0L148.45 0L148.45-8.58ZM158.39-4.27L158.39-4.27Q158.20-7.64 155.39-7.83L155.39-7.83Q152.53-7.69 152.39-4.27L152.39-4.27Q152.53-0.94 155.39-0.80L155.39-0.80Q158.20-0.98 158.39-4.27ZM159.56-4.27L159.56-4.27Q159.28 0 155.39 0.14L155.39 0.14Q151.45 0 151.17-4.27L151.17-4.27Q151.41-8.72 155.39-8.81L155.39-8.81Q159.28-8.67 159.56-4.27ZM162.33-8.58L166.64-1.64L166.64-8.58L167.77-8.58L167.77 0L166.45 0L162.09-6.94L162.05-6.94L162.05 0L160.92 0L160.92-8.58L162.33-8.58Z" transform="translate(-0.890625, 8.8125)"></path></g></g></g></g></g><defs v-gra="od"></defs></svg>